<?xml version="1.0" encoding="UTF-8" standalone="no"?>
<svg
   version="1.0"
   width="225.000000pt"
   height="225.000000pt"
   viewBox="0 0 225.000000 225.000000"
   preserveAspectRatio="xMidYMid meet"
   id="svg10"
   sodipodi:docname="vda (copy).svg"
   inkscape:version="1.1.2 (0a00cf5339, 2022-02-04)"
   xmlns:inkscape="http://www.inkscape.org/namespaces/inkscape"
   xmlns:sodipodi="http://sodipodi.sourceforge.net/DTD/sodipodi-0.dtd"
   xmlns="http://www.w3.org/2000/svg"
   xmlns:svg="http://www.w3.org/2000/svg">
  <defs
     id="defs14" />
  <sodipodi:namedview
     id="namedview12"
     pagecolor="#ffffff"
     bordercolor="#666666"
     borderopacity="1.0"
     inkscape:pageshadow="2"
     inkscape:pageopacity="0.0"
     inkscape:pagecheckerboard="0"
     inkscape:document-units="pt"
     showgrid="false"
     inkscape:zoom="2.8133333"
     inkscape:cx="149.82227"
     inkscape:cy="149.82227"
     inkscape:window-width="1920"
     inkscape:window-height="1016"
     inkscape:window-x="0"
     inkscape:window-y="27"
     inkscape:window-maximized="1"
     inkscape:current-layer="svg10" />
  <rect
     style="fill:#ffffff;stroke-width:0.75"
     id="rect38"
     width="119.67767"
     height="119.4774"
     x="55.068466"
     y="52.496437"
     rx="2.82375" />
  <g
     transform="translate(0.000000,225.000000) scale(0.100000,-0.100000)"
     fill="#000000"
     stroke="none"
     id="g8">
    <path
       d="M249 2236 c-102 -27 -171 -87 -218 -186 l-26 -55 -3 -840 c-2 -514 1 -865 7 -903 17 -109 90 -196 196 -233 33 -12 195 -14 930 -14 890 0 890 0 936 21 60 28 125 93 153 153 21 46 21 46 21 946 l0 900 -24 49 c-31 63 -90 122 -150 150 -46 21 -49 21 -911 23 -666 2 -876 -1 -911 -11z m1170 -570 c69 -23 161 -111 179 -172 15 -50 15 -126 2 -175 -12 -42 -71 -114 -111 -135 -37 -19 -37 -27 5 -42 62 -23 113 -68 141 -126 25 -51 27 -64 23 -144 -6 -120 -42 -185 -138 -248 -68 -45 -161 -55 -542 -61 l-348 -5 0 567 0 567 368 -4 c313 -4 375 -8 421 -22z"
       id="path2" />
    <path
       d="M984 1437 c-3 -8 -4 -52 -2 -98 l3 -84 100 -3 c80 -2 107 1 135 15 66 34 66 132 0 165 -45 23 -228 26 -236 5z"
       id="path4" />
    <path
       d="M984 1017 c-3 -8 -3 -56 -2 -108 l3 -94 90 -3 c127 -4 173 4 207 38 55 56 28 148 -50 170 -56 15 -241 13 -248 -3z"
       id="path6" />
  </g>
</svg>
